<?xml version="1.0" encoding="UTF-8" standalone="no"?>
<svg
  xmlns="http://www.w3.org/2000/svg"
  height="512px"
  width="512px"
  version="1.1"
  viewBox="0 0 512 512"
  id="svg4">
  <g
    id="g818"
    transform="matrix(1.1225138,0,0,1.1225138,1.2482096,7.5295115)">
    <path
      style="stroke-width:0.44325697"
      id="path2"
      d="M 226.94758,0 C 101.61666,0 0,101.61666 0,226.94758 c 0,100.2869 65.020481,185.33684 155.20909,215.33957 11.34472,2.07798 15.48652,-4.93123 15.48652,-10.9152 0,-5.40242 -0.20789,-23.29848 -0.31871,-42.24771 -63.10871,13.71304 -76.448085,-26.76164 -76.448085,-26.76164 -10.333207,-26.20757 -25.1965,-33.18887 -25.1965,-33.18887 -20.625191,-14.07341 1.564697,-13.79637 1.564697,-13.79637 22.786069,1.57888 34.782378,23.3818 34.782378,23.3818 20.25152,34.68486 53.13543,24.65617 66.04529,18.83842 2.06292,-14.62748 7.93607,-24.65617 14.40585,-30.30769 -50.37881,-5.73442 -103.375507,-25.21024 -103.375507,-112.17195 0,-24.79491 8.851399,-45.01807 23.340137,-60.90617 -2.31336,-5.76235 -10.125759,-28.85337 2.24377,-60.088808 0,0 19.03257,-6.094784 62.4159,23.270988 18.09021,-5.05579 37.49688,-7.54911 56.7923,-7.63244 19.28168,0.0833 38.70166,2.60414 56.82023,7.65993 43.30089,-29.393262 62.36094,-23.270996 62.36094,-23.270996 12.4112,31.263356 4.59879,54.326466 2.27169,60.061326 14.54415,15.8881 23.3264,36.1117 23.3264,60.90617 0,87.18333 -53.08002,106.38168 -103.6388,112.00573 8.17277,7.0367 15.40318,20.83307 15.40318,41.9986 0,30.33562 -0.30496,54.79764 -0.30496,62.2776 0,6.03938 4.12761,13.10356 15.62481,10.88728 C 388.93053,412.22901 453.89516,327.17907 453.89516,226.94758 453.89516,101.61666 352.27849,0 226.94758,0 Z"/>
  </g>
</svg>
